<svg width="219" height="54" viewBox="0 0 219 54" fill="none" xmlns="http://www.w3.org/2000/svg">
<g clip-path="url(#clip0_124_109)">
<path d="M207.539 0.0676609L218.189 21.3298L195.801 42.5896L207.539 0.0676609Z" fill="#008C44"/>
<path d="M200.075 0.0676609L210.716 21.3298L188.318 42.5896L200.075 0.0676609Z" fill="#F47920"/>
<path d="M48.5455 30.9175C47.7276 32.6461 46.0749 33.8982 44.1027 34.1496H42.6432H14.0258L16.4463 25.4541H38.5271H45.338H46.8118C47.9183 25.7295 48.7864 26.6081 49.0392 27.7214C49.0726 27.9727 49.094 28.2241 49.094 28.4851C49.094 28.6168 49.0869 28.7484 49.075 28.8777C49.0726 28.9328 49.0726 28.9855 49.0678 29.0405L48.5455 30.9175ZM21.173 8.44392H43.2322H50.141H51.5957C52.4303 8.64982 53.1291 9.19568 53.5345 9.92588C53.6824 10.4382 53.7658 10.9769 53.7658 11.5323C53.7658 11.834 53.7372 12.1237 53.6919 12.4134L53.6132 12.6911L53.3199 13.7541C52.5377 15.6047 50.8111 16.9526 48.7459 17.204H47.3436H18.7381L21.173 8.44392ZM52.862 41.1907C53.9065 40.3839 54.5957 39.3855 54.9272 38.1956L58.4686 25.4541C58.793 24.2954 58.6499 23.3234 58.0465 22.5381C57.4432 21.7528 56.5513 21.3602 55.3732 21.3602C56.5513 21.3602 57.665 20.958 58.7143 20.1512C59.7564 19.3443 60.4432 18.3628 60.7652 17.204L64.3018 4.47926C64.6476 3.2415 64.5307 2.22161 63.956 1.41C63.3813 0.60079 62.4822 0.193787 61.2588 0.193787H15.0655L3.32764 42.4021H49.5233C50.7014 42.4021 51.8151 41.9975 52.862 41.1907Z" fill="#6D6E71"/>
<path d="M112.695 0.231485L108.051 17.1842H74.7265L79.3721 0.231485H71.0873L59.5569 42.2961H67.844L72.4729 25.4176H105.793L101.169 42.2961H109.456L120.984 0.231485H112.695Z" fill="#6D6E71"/>
<path d="M123.394 42.4299H115.052L126.651 0.374849H134.991L123.394 42.4299Z" fill="#6D6E71"/>
<path d="M192.997 0.336656L158.387 29.7843L146.315 9.64259L140.735 0.336656H140.584L137.956 9.89398L129.056 42.2696H137.344L143.582 19.5758L156.801 42.3247L178.684 22.1902L173.196 42.2696H181.486L189.573 12.8387L193.012 0.336656H192.997Z" fill="#6D6E71"/>
<path d="M2.71068 50.1221H3.11847C3.62643 50.1221 4.00323 50.055 4.24648 49.9233C4.48734 49.7917 4.64712 49.5714 4.72105 49.2602C4.80213 48.9178 4.75921 48.6784 4.59942 48.5419C4.43726 48.4031 4.08431 48.336 3.54535 48.336H3.13755L2.71068 50.1221ZM2.05724 52.8705H2.4245C2.79653 52.8705 3.07793 52.8585 3.2711 52.8298C3.46188 52.8011 3.62166 52.7532 3.74806 52.679C3.8983 52.5976 4.02708 52.485 4.13201 52.3486C4.23694 52.2097 4.30848 52.0589 4.34902 51.8889C4.39433 51.6902 4.39195 51.5178 4.34187 51.3694C4.2894 51.2233 4.19401 51.1084 4.05092 51.027C3.9603 50.9768 3.85299 50.9432 3.72898 50.9193C3.60258 50.8977 3.43565 50.8858 3.21863 50.8858H2.89669H2.52943L2.05724 52.8705ZM0.807617 53.718L2.29095 47.4933H3.94838C4.41818 47.4933 4.76159 47.5173 4.97622 47.5675C5.19085 47.613 5.36256 47.6944 5.4961 47.8045C5.66542 47.9458 5.77989 48.1325 5.83713 48.3624C5.89436 48.5898 5.88959 48.846 5.8252 49.1213C5.74174 49.4541 5.59865 49.7318 5.38402 49.9545C5.167 50.1747 4.89752 50.3303 4.56842 50.4189C4.93806 50.474 5.20039 50.6416 5.35302 50.9145C5.50803 51.1874 5.53665 51.5322 5.43648 51.9488C5.37686 52.2001 5.27193 52.442 5.12646 52.6646C4.97861 52.8944 4.80213 53.086 4.59227 53.2464C4.37287 53.4188 4.12247 53.5409 3.83868 53.6127C3.55489 53.6821 3.0994 53.718 2.4722 53.718H0.807617Z" fill="#414042"/>
<path d="M8.875 53.718L10.3583 47.4933H11.4243L10.8782 49.7893H14.1048L14.6533 47.4933H15.7217L14.2384 53.718H13.17L13.8926 50.6942H10.6612L9.941 53.718H8.875Z" fill="#414042"/>
<path d="M20.4846 51.2724H22.3161L21.9822 49.8527C21.9632 49.7617 21.9489 49.6588 21.9346 49.5391C21.9226 49.4241 21.9107 49.2925 21.9035 49.1464C21.832 49.2829 21.7676 49.4122 21.6985 49.5271C21.6293 49.6444 21.5625 49.7545 21.4981 49.8527L20.4846 51.2724ZM22.8527 53.7168L22.4926 52.1151H19.8908L18.7461 53.7168H17.6252L22.3471 47.2479L23.9807 53.7168H22.8527Z" fill="#414042"/>
<path d="M29.2902 50.1455H29.4833C30.0485 50.1455 30.4373 50.0857 30.6543 49.9612C30.8689 49.8343 31.0144 49.6116 31.0907 49.298C31.1718 48.9532 31.1288 48.7114 30.9643 48.5726C30.7997 48.4313 30.4468 48.3619 29.9102 48.3619H29.717L29.2902 50.1455ZM29.0374 50.9332L28.372 53.7175H27.3728L28.8561 47.4952H30.3442C30.7807 47.4952 31.1145 47.5216 31.3411 47.5742C31.57 47.6269 31.7537 47.7179 31.8944 47.8424C32.0613 47.9932 32.1734 48.1895 32.2258 48.4241C32.2807 48.6635 32.2735 48.9221 32.2068 49.207C32.0875 49.705 31.8657 50.0952 31.5438 50.3801C31.2242 50.6602 30.8093 50.8302 30.2989 50.8877L31.8848 53.7175H30.6781L29.1566 50.9332H29.0374Z" fill="#414042"/>
<path d="M37.2573 51.2724H39.0888L38.755 49.8527C38.7359 49.7617 38.7192 49.6588 38.7073 49.5391C38.6953 49.4241 38.6834 49.2925 38.6763 49.1464C38.6047 49.2829 38.5379 49.4122 38.4712 49.5271C38.3996 49.6444 38.3328 49.7545 38.2708 49.8527L37.2573 51.2724ZM39.6254 53.7168L39.2653 52.1151H36.6635L35.5188 53.7168H34.3979L39.1198 47.2479L40.751 53.7168H39.6254Z" fill="#414042"/>
<path d="M47.0433 48.3523L45.7627 53.7175H44.6967L45.9749 48.3523H44.2292L44.4343 47.4952H48.9821L48.7794 48.3523H47.0433Z" fill="#414042"/>
<path d="M56.6523 53.718L58.1357 47.4933H59.2017L57.7183 53.718H56.6523Z" fill="#414042"/>
<path d="M62.0273 53.7182L63.5679 47.2492L66.8327 51.0535C66.9209 51.1612 67.0092 51.2738 67.095 51.3959C67.1832 51.518 67.2715 51.6568 67.3645 51.8076L68.3923 47.4934H69.3796L67.8391 53.96L64.5075 50.0863C64.4169 49.9809 64.3358 49.8732 64.2571 49.7559C64.176 49.6386 64.1045 49.5165 64.0401 49.3896L63.0075 53.7182H62.0273Z" fill="#414042"/>
<path d="M75.577 48.3523L74.2988 53.7175H73.2328L74.511 48.3523H72.7654L72.9705 47.4952H77.5159L77.3156 48.3523H75.577Z" fill="#414042"/>
<path d="M79.6245 53.718L81.1078 47.4933H84.7709L84.5658 48.3528H81.9688L81.5967 49.9138H84.1938L83.9815 50.802H81.3845L80.9051 52.813H83.5022L83.2875 53.718H79.6245Z" fill="#414042"/>
<path d="M89.2033 50.1455H89.3964C89.9616 50.1455 90.3503 50.0857 90.5674 49.9612C90.782 49.8343 90.9275 49.6116 91.0038 49.298C91.0849 48.9532 91.0419 48.7114 90.8774 48.5726C90.7128 48.4313 90.3599 48.3619 89.8233 48.3619H89.6301L89.2033 50.1455ZM88.9505 50.9332L88.2851 53.7175H87.2859L88.7692 47.4952H90.2573C90.6937 47.4952 91.0276 47.5216 91.2542 47.5742C91.4831 47.6269 91.6667 47.7179 91.8074 47.8424C91.9744 47.9932 92.0865 48.1895 92.1389 48.4241C92.1938 48.6635 92.1866 48.9221 92.1198 49.207C92.0006 49.705 91.7788 50.0952 91.4569 50.3801C91.1373 50.6602 90.7224 50.8302 90.212 50.8877L91.7979 53.7175H90.5912L89.0697 50.9332H88.9505Z" fill="#414042"/>
<path d="M95.2026 53.718L96.686 47.4933H100.349L100.144 48.3528H97.5469L97.1796 49.9042H99.7767L99.5644 50.7924H96.9674L96.2686 53.718H95.2026Z" fill="#414042"/>
<path d="M104.439 51.2724H106.268L105.934 49.8527C105.915 49.7617 105.901 49.6588 105.886 49.5391C105.875 49.4241 105.863 49.2925 105.855 49.1464C105.786 49.2829 105.72 49.4122 105.65 49.5271C105.581 49.6444 105.514 49.7545 105.45 49.8527L104.439 51.2724ZM106.807 53.7168L106.444 52.1151H103.843L102.7 53.7168H101.577L106.299 47.2479L107.933 53.7168H106.807Z" fill="#414042"/>
<path d="M117.555 49.007C117.31 48.7628 117.035 48.5808 116.728 48.4587C116.42 48.339 116.084 48.2744 115.714 48.2744C114.996 48.2744 114.357 48.4946 113.804 48.9328C113.251 49.3661 112.891 49.9335 112.726 50.6278C112.564 51.2981 112.652 51.8512 112.986 52.2893C113.32 52.7274 113.821 52.9453 114.489 52.9453C114.875 52.9453 115.261 52.8783 115.643 52.7466C116.024 52.6173 116.411 52.421 116.797 52.1552L116.523 53.302C116.189 53.4959 115.841 53.6444 115.481 53.7401C115.12 53.8359 114.741 53.8838 114.348 53.8838C113.845 53.8838 113.401 53.8048 113.012 53.6492C112.624 53.4935 112.304 53.2637 112.051 52.9597C111.803 52.6628 111.643 52.3132 111.565 51.9086C111.491 51.5064 111.508 51.0731 111.615 50.6182C111.725 50.1609 111.913 49.7348 112.18 49.3326C112.447 48.9328 112.781 48.5784 113.179 48.2744C113.578 47.9703 114.007 47.7405 114.465 47.5801C114.923 47.4245 115.399 47.3455 115.891 47.3455C116.275 47.3455 116.63 47.3981 116.954 47.5059C117.279 47.6112 117.579 47.7716 117.858 47.9871L117.555 49.007Z" fill="#414042"/>
<path d="M120.529 53.718L122.013 47.4933H125.676L125.471 48.3528H122.874L122.504 49.9138H125.101L124.889 50.802H122.292L121.812 52.813H124.409L124.192 53.718H120.529Z" fill="#414042"/>
<path d="M133.736 53.718L135.22 47.4933H138.883L138.678 48.3528H136.081L135.711 49.9042H138.308L138.096 50.7924H135.499L134.802 53.718H133.736Z" fill="#414042"/>
<path d="M147.687 50.618C147.763 50.3043 147.772 50.0051 147.72 49.7226C147.665 49.4401 147.553 49.1863 147.379 48.966C147.21 48.7482 146.993 48.5782 146.73 48.4633C146.466 48.3459 146.172 48.2837 145.848 48.2837C145.528 48.2837 145.206 48.3436 144.887 48.4609C144.567 48.5758 144.267 48.7434 143.988 48.966C143.709 49.1815 143.475 49.4353 143.287 49.7178C143.101 50.0003 142.969 50.3019 142.893 50.618C142.819 50.934 142.807 51.2309 142.862 51.511C142.915 51.7911 143.027 52.0425 143.201 52.2627C143.375 52.483 143.594 52.6554 143.857 52.7679C144.119 52.8852 144.412 52.9451 144.739 52.9451C145.059 52.9451 145.376 52.8852 145.693 52.7679C146.01 52.6554 146.308 52.483 146.592 52.2627C146.871 52.0425 147.107 51.7911 147.293 51.5086C147.481 51.2285 147.615 50.9316 147.687 50.618ZM148.8 50.618C148.695 51.0609 148.509 51.4775 148.237 51.8725C147.97 52.2651 147.632 52.6171 147.224 52.9259C146.811 53.2371 146.373 53.4718 145.91 53.637C145.447 53.7998 144.98 53.8835 144.515 53.8835C144.043 53.8835 143.611 53.7998 143.222 53.6346C142.834 53.467 142.509 53.2323 142.254 52.9259C141.992 52.6171 141.822 52.2675 141.741 51.8773C141.663 51.4846 141.675 51.0657 141.782 50.618C141.887 50.1727 142.073 49.7561 142.342 49.3611C142.609 48.966 142.948 48.6141 143.358 48.3005C143.764 47.9916 144.2 47.7594 144.663 47.5966C145.128 47.4338 145.595 47.3548 146.07 47.3548C146.544 47.3548 146.971 47.4338 147.357 47.5966C147.741 47.7594 148.063 47.9916 148.326 48.3005C148.586 48.6165 148.755 48.9732 148.836 49.3682C148.917 49.7633 148.905 50.1774 148.8 50.618Z" fill="#414042"/>
<path d="M153.979 50.1455H154.172C154.735 50.1455 155.126 50.0857 155.341 49.9612C155.555 49.8343 155.703 49.6116 155.777 49.298C155.858 48.9532 155.818 48.7114 155.651 48.5726C155.486 48.4313 155.133 48.3619 154.597 48.3619H154.404L153.979 50.1455ZM153.724 50.9332L153.059 53.7175H152.059L153.543 47.4952H155.031C155.467 47.4952 155.801 47.5216 156.028 47.5742C156.257 47.6269 156.44 47.7179 156.583 47.8424C156.748 47.9932 156.86 48.1895 156.912 48.4241C156.967 48.6635 156.96 48.9221 156.893 49.207C156.774 49.705 156.552 50.0952 156.233 50.3801C155.913 50.6602 155.496 50.8302 154.985 50.8877L156.571 53.7175H155.365L153.843 50.9332H153.724Z" fill="#414042"/>
<path d="M171.609 50.6436C171.609 50.5957 171.621 50.464 171.647 50.2437C171.664 50.0642 171.68 49.9134 171.69 49.7937C171.63 49.9349 171.559 50.0786 171.475 50.2174C171.392 50.3611 171.296 50.5047 171.184 50.6531L168.678 53.969L167.767 50.5861C167.726 50.4449 167.698 50.3108 167.679 50.1815C167.657 50.0498 167.641 49.9205 167.631 49.7937C167.598 49.9229 167.555 50.0618 167.5 50.203C167.447 50.3467 167.383 50.4951 167.307 50.6531L165.873 53.7176H164.891L167.986 47.2295L168.988 51.1583C169.002 51.2205 169.024 51.3235 169.052 51.4695C169.076 51.6132 169.11 51.7903 169.145 52.0034C169.253 51.8263 169.403 51.5988 169.603 51.3235C169.658 51.2517 169.696 51.1942 169.725 51.1535L172.553 47.2295L172.594 53.7176H171.604L171.609 50.6436Z" fill="#414042"/>
<path d="M182.578 50.618C182.652 50.3043 182.664 50.0051 182.611 49.7226C182.556 49.4401 182.442 49.1863 182.268 48.966C182.099 48.7482 181.882 48.5782 181.619 48.4633C181.355 48.3459 181.061 48.2837 180.739 48.2837C180.417 48.2837 180.095 48.3436 179.776 48.4609C179.456 48.5758 179.156 48.7434 178.877 48.966C178.598 49.1815 178.364 49.4353 178.178 49.7178C177.99 50.0003 177.858 50.3019 177.782 50.618C177.708 50.934 177.696 51.2309 177.751 51.511C177.804 51.7911 177.916 52.0425 178.092 52.2627C178.264 52.483 178.483 52.6554 178.748 52.7679C179.008 52.8852 179.304 52.9451 179.63 52.9451C179.947 52.9451 180.265 52.8852 180.582 52.7679C180.899 52.6554 181.197 52.483 181.481 52.2627C181.76 52.0425 181.996 51.7911 182.184 51.5086C182.373 51.2285 182.504 50.9316 182.578 50.618ZM183.689 50.618C183.584 51.0609 183.398 51.4775 183.126 51.8725C182.859 52.2651 182.523 52.6171 182.113 52.9259C181.703 53.2371 181.264 53.4718 180.799 53.637C180.336 53.7998 179.871 53.8835 179.404 53.8835C178.932 53.8835 178.5 53.7998 178.111 53.6346C177.722 53.467 177.398 53.2323 177.145 52.9259C176.881 52.6171 176.711 52.2675 176.633 51.8773C176.552 51.4846 176.566 51.0657 176.671 50.618C176.776 50.1727 176.964 49.7561 177.231 49.3611C177.498 48.966 177.837 48.6141 178.247 48.3005C178.653 47.9916 179.091 47.7594 179.554 47.5966C180.017 47.4338 180.486 47.3548 180.961 47.3548C181.436 47.3548 181.862 47.4338 182.246 47.5966C182.63 47.7594 182.955 47.9916 183.217 48.3005C183.475 48.6165 183.644 48.9732 183.725 49.3682C183.808 49.7633 183.794 50.1774 183.689 50.618Z" fill="#414042"/>
<path d="M186.949 53.7182L188.49 47.2492L191.757 51.0535C191.843 51.1612 191.931 51.2738 192.019 51.3959C192.105 51.518 192.196 51.6568 192.286 51.8076L193.317 47.4934H194.302L192.763 53.96L189.429 50.0863C189.339 49.9809 189.258 49.8732 189.179 49.7559C189.098 49.6386 189.029 49.5165 188.962 49.3896L187.929 53.7182H186.949Z" fill="#414042"/>
<path d="M197.101 53.718L198.584 47.4933H202.247L202.042 48.3528H199.445L199.073 49.9138H201.67L201.458 50.802H198.861L198.381 52.813H200.978L200.764 53.718H197.101Z" fill="#414042"/>
<path d="M206.174 53.718L206.854 50.869L205.447 47.4933H206.568L207.441 49.6049C207.46 49.6624 207.486 49.7318 207.515 49.818C207.541 49.9066 207.569 50.0023 207.598 50.1029C207.66 50.0047 207.727 49.9114 207.796 49.8228C207.863 49.7366 207.93 49.6576 207.999 49.5786L209.909 47.4933H210.977L207.913 50.869L207.231 53.718H206.174Z" fill="#414042"/>
</g>
<defs>
<clipPath id="clip0_124_109">
<rect width="219" height="54" fill="white"/>
</clipPath>
</defs>
</svg>
